<svg width="96" height="75" viewBox="0 0 96 75" fill="none" xmlns="http://www.w3.org/2000/svg">
<path d="M40.9733 5.34767L37.49 0C13.3893 16.1756 0 35.8294 0 52.005C0 67.6459 11.5169 75 21.29 75C33.6081 75 42.3101 64.5699 42.3101 53.6093C42.3101 44.3857 36.4188 36.4968 28.5181 33.5534C26.243 32.7491 24.1007 32.0817 24.1007 28.2058C24.1007 23.2602 27.7169 15.9104 40.9733 5.34767ZM94.1277 5.34767L90.6443 0C66.8093 16.1756 53.1543 35.8294 53.1543 52.005C53.1543 67.6459 64.9369 75 74.71 75C87.1609 75 96 64.5699 96 53.6093C96 44.3857 89.9759 36.4968 81.8052 33.5534C79.5301 32.7491 77.5207 32.0817 77.5207 28.2058C77.5207 23.2602 81.2697 15.9061 94.1234 5.34339L94.1277 5.34767Z" fill="#F2F5FC"/>
</svg>
