<svg width="27" height="30" viewBox="0 0 27 30" fill="none" xmlns="http://www.w3.org/2000/svg">
<path d="M22.3741 1.2168C22.7572 1.2168 23.0677 1.52633 23.0677 1.90816L23.0677 6.05637C23.0677 6.4382 22.7572 6.74774 22.3741 6.74774L5.03267 6.74774C4.64957 6.74774 4.33901 6.4382 4.33901 6.05637L4.33901 1.90816C4.33901 1.52633 4.64957 1.2168 5.03267 1.2168L22.3741 1.2168Z" fill="#0355B6"/>
<path fill-rule="evenodd" clip-rule="evenodd" d="M23.7615 1.90813L23.7615 6.05633C23.7615 6.82 23.1404 7.43907 22.3742 7.43907L5.03273 7.43907C4.26653 7.43907 3.64541 6.82 3.64541 6.05633L3.64541 1.90813C3.64541 1.14446 4.26653 0.52539 5.03273 0.52539L22.3742 0.525391C23.1404 0.525391 23.7615 1.14446 23.7615 1.90813ZM23.0678 1.90813C23.0678 1.52629 22.7573 1.21676 22.3742 1.21676L5.03273 1.21676C4.64963 1.21676 4.33907 1.52629 4.33907 1.90813L4.33907 6.05633C4.33907 6.43817 4.64963 6.7477 5.03273 6.7477L22.3742 6.7477C22.7573 6.7477 23.0678 6.43817 23.0678 6.05633L23.0678 1.90813Z" fill="#023E84"/>
<path fill-rule="evenodd" clip-rule="evenodd" d="M4.96924 1.56248C4.96924 1.37156 5.12452 1.2168 5.31607 1.2168H22.2873C22.4789 1.2168 22.6341 1.37156 22.6341 1.56248C22.6341 1.7534 22.4789 1.90816 22.2873 1.90816H5.31607C5.12452 1.90816 4.96924 1.7534 4.96924 1.56248Z" fill="#1871DA"/>
<path fill-rule="evenodd" clip-rule="evenodd" d="M4.83752 3.57176C4.83752 3.38084 4.9928 3.22607 5.18435 3.22607H22.1556C22.3471 3.22607 22.5024 3.38084 22.5024 3.57176C22.5024 3.76267 22.3471 3.91744 22.1556 3.91744H5.18435C4.9928 3.91744 4.83752 3.76267 4.83752 3.57176Z" fill="#034492"/>
<path fill-rule="evenodd" clip-rule="evenodd" d="M4.83752 2.29686C4.83752 2.10594 4.9928 1.95117 5.18435 1.95117H22.1556C22.3471 1.95117 22.5024 2.10594 22.5024 2.29686C22.5024 2.48777 22.3471 2.64254 22.1556 2.64254H5.18435C4.9928 2.64254 4.83752 2.48777 4.83752 2.29686Z" fill="#034492"/>
<path fill-rule="evenodd" clip-rule="evenodd" d="M4.83752 4.82469C4.83752 4.63377 4.9928 4.479 5.18435 4.479H22.1556C22.3471 4.479 22.5024 4.63377 22.5024 4.82469C22.5024 5.0156 22.3471 5.17037 22.1556 5.17037H5.18435C4.9928 5.17037 4.83752 5.0156 4.83752 4.82469Z" fill="#034492"/>
<path fill-rule="evenodd" clip-rule="evenodd" d="M4.96924 5.96971C4.96924 5.77879 5.12452 5.62402 5.31607 5.62402H22.2873C22.4789 5.62402 22.6341 5.77879 22.6341 5.96971C22.6341 6.16062 22.4789 6.31539 22.2873 6.31539H5.31607C5.12452 6.31539 4.96924 6.16062 4.96924 5.96971Z" fill="#034492"/>
<path d="M5.41444 1.48887C5.14355 1.21887 4.70435 1.21887 4.43346 1.48887L1.49052 4.42209C1.21963 4.69209 1.21963 5.12984 1.49052 5.39983L13.3218 17.192C13.5927 17.462 14.0319 17.462 14.3028 17.192L17.2457 14.2588C17.5166 13.9888 17.5166 13.5511 17.2457 13.2811L5.41444 1.48887Z" fill="#086FE9"/>
<path fill-rule="evenodd" clip-rule="evenodd" d="M3.94297 1.0002L1.00003 3.93342C0.458255 4.47342 0.458255 5.34892 1.00003 5.88891L12.8313 17.6811C13.3731 18.2211 14.2515 18.2211 14.7932 17.6811L17.7362 14.7479C18.278 14.2079 18.278 13.3324 17.7362 12.7924L5.90493 1.0002C5.36315 0.46021 4.48475 0.460211 3.94297 1.0002ZM4.43346 1.48907C4.70435 1.21908 5.14355 1.21908 5.41444 1.48907L17.2457 13.2813C17.5166 13.5513 17.5166 13.989 17.2457 14.259L14.3028 17.1922C14.0319 17.4622 13.5927 17.4622 13.3218 17.1922L1.49052 5.40004C1.21963 5.13004 1.21963 4.69229 1.49052 4.4223L4.43346 1.48907Z" fill="#023E84"/>
<path d="M21.9926 1.50246C22.2623 1.22613 22.7067 1.22309 22.9802 1.49571L25.9231 4.42884C26.1913 4.69622 26.1943 5.1288 25.9298 5.39983L14.4319 17.1786C14.1621 17.4549 13.7177 17.458 13.4442 17.1854L10.5014 14.2522C10.2331 13.9848 10.2301 13.5523 10.4947 13.2812L21.9926 1.50246Z" fill="#086FE9"/>
<path fill-rule="evenodd" clip-rule="evenodd" d="M23.4707 1.00655L26.4136 3.93968C26.9501 4.47444 26.9561 5.33961 26.4269 5.88166L14.9291 17.6604C14.3896 18.2131 13.5008 18.2192 12.9537 17.674L10.0109 14.7408C9.47435 14.2061 9.4684 13.3409 9.99752 12.7988L21.4954 1.02006C22.0349 0.467391 22.9237 0.461314 23.4707 1.00655ZM22.9802 1.49542C22.7067 1.2228 22.2623 1.22584 21.9926 1.50218L10.4947 13.281C10.2301 13.552 10.2331 13.9846 10.5014 14.252L13.4442 17.1851C13.7177 17.4577 14.1621 17.4547 14.4319 17.1783L25.9298 5.39954C26.1943 5.12852 26.1913 4.69593 25.9231 4.42855L22.9802 1.49542Z" fill="#023E84"/>
<path fill-rule="evenodd" clip-rule="evenodd" d="M22.5532 1.79252C22.6892 1.9269 22.6902 2.14577 22.5554 2.28138L15.4671 9.41111C15.3323 9.54673 15.1127 9.54773 14.9766 9.41335C14.8405 9.27897 14.8395 9.06009 14.9744 8.92448L22.0627 1.79475C22.1975 1.65914 22.4171 1.65814 22.5532 1.79252Z" fill="#3D96FF"/>
<path fill-rule="evenodd" clip-rule="evenodd" d="M1.57924 4.68865C1.71469 4.55365 1.93429 4.55365 2.06973 4.68865L6.5785 9.18254C6.71394 9.31754 6.71394 9.53642 6.5785 9.67142C6.44305 9.80641 6.22345 9.80641 6.08801 9.67142L1.57924 5.17752C1.4438 5.04252 1.4438 4.82365 1.57924 4.68865Z" fill="#3D96FF"/>
<path d="M23.9641 3.77488C23.8251 3.9134 23.6025 3.91614 23.4669 3.781C23.3314 3.64586 23.3341 3.42401 23.4731 3.28548C23.6121 3.14696 23.8346 3.14422 23.9702 3.27937C24.1058 3.41451 24.1031 3.63636 23.9641 3.77488Z" fill="#055EC8"/>
<path d="M22.9092 4.63071C22.7363 4.80302 22.4595 4.80643 22.2908 4.63832C22.1221 4.47022 22.1255 4.19426 22.2984 4.02195C22.4713 3.84964 22.7482 3.84624 22.9168 4.01434C23.0855 4.18245 23.0821 4.45841 22.9092 4.63071Z" fill="#055EC8"/>
<path d="M24.033 4.90129C23.9466 4.98745 23.8082 4.98915 23.7238 4.9051C23.6395 4.82105 23.6412 4.68307 23.7276 4.59691C23.8141 4.51076 23.9525 4.50906 24.0368 4.59311C24.1212 4.67716 24.1195 4.81514 24.033 4.90129Z" fill="#055EC8"/>
<path d="M21.5346 7.8217C21.4482 7.90786 21.3097 7.90956 21.2254 7.82551C21.1411 7.74146 21.1428 7.60348 21.2292 7.51732C21.3157 7.43117 21.4541 7.42947 21.5384 7.51352C21.6228 7.59757 21.6211 7.73555 21.5346 7.8217Z" fill="#055EC8"/>
<path d="M22.7888 5.83733C22.7023 5.92348 22.5639 5.92519 22.4796 5.84113C22.3952 5.75708 22.3969 5.6191 22.4834 5.53295C22.5698 5.44679 22.7083 5.44509 22.7926 5.52914C22.8769 5.6132 22.8752 5.75118 22.7888 5.83733Z" fill="#055EC8"/>
<path d="M21.5308 9.01165C21.4444 9.0978 21.306 9.0995 21.2216 9.01545C21.1373 8.9314 21.139 8.79342 21.2254 8.70726C21.3119 8.62111 21.4503 8.61941 21.5347 8.70346C21.619 8.78751 21.6173 8.92549 21.5308 9.01165Z" fill="#055EC8"/>
<path d="M21.8474 5.57415C21.7609 5.6603 21.6225 5.662 21.5382 5.57795C21.4538 5.4939 21.4555 5.35592 21.542 5.26976C21.6284 5.18361 21.7668 5.18191 21.8512 5.26596C21.9355 5.35001 21.9338 5.48799 21.8474 5.57415Z" fill="#055EC8"/>
<path d="M22.5511 8.03704C22.4647 8.12319 22.3262 8.12489 22.2419 8.04084C22.1576 7.95679 22.1593 7.81881 22.2457 7.73266C22.3321 7.6465 22.4706 7.6448 22.5549 7.72885C22.6392 7.8129 22.6375 7.95088 22.5511 8.03704Z" fill="#055EC8"/>
<path d="M25.0802 4.3554C24.9937 4.44155 24.8553 4.44325 24.7709 4.3592C24.6866 4.27515 24.6883 4.13717 24.7748 4.05101C24.8612 3.96486 24.9996 3.96316 25.084 4.04721C25.1683 4.13126 25.1666 4.26924 25.0802 4.3554Z" fill="#055EC8"/>
<path d="M23.9364 6.16184C23.7957 6.30205 23.5704 6.30482 23.4332 6.16803C23.2959 6.03124 23.2987 5.80668 23.4394 5.66647C23.5801 5.52626 23.8054 5.52349 23.9426 5.66028C24.0798 5.79707 24.0771 6.02163 23.9364 6.16184Z" fill="#055EC8"/>
<path d="M25.2763 5.32151C25.1357 5.46172 24.9104 5.46449 24.7731 5.3277C24.6359 5.19091 24.6387 4.96635 24.7793 4.82614C24.92 4.68593 25.1453 4.68316 25.2826 4.81995C25.4198 4.95674 25.417 5.18129 25.2763 5.32151Z" fill="#055EC8"/>
<path d="M22.5619 7.05344C22.4212 7.19365 22.1959 7.19642 22.0587 7.05963C21.9214 6.92284 21.9242 6.69829 22.0649 6.55807C22.2055 6.41786 22.4308 6.41509 22.5681 6.55188C22.7053 6.68867 22.7025 6.91323 22.5619 7.05344Z" fill="#055EC8"/>
<path d="M23.5363 7.20549C23.4499 7.29165 23.3115 7.29335 23.2271 7.2093C23.1428 7.12525 23.1445 6.98727 23.2309 6.90111C23.3174 6.81496 23.4558 6.81326 23.5401 6.89731C23.6245 6.98136 23.6228 7.11934 23.5363 7.20549Z" fill="#055EC8"/>
<path d="M23.197 19.6665C23.197 24.8212 19.0044 28.9999 13.8326 28.9999C8.66083 28.9999 4.46826 24.8212 4.46826 19.6665C4.46826 14.5117 8.66083 10.333 13.8326 10.333C19.0044 10.333 23.197 14.5117 23.197 19.6665Z" fill="#FFBB0D"/>
<path fill-rule="evenodd" clip-rule="evenodd" d="M23.8907 19.6664C23.8907 25.203 19.3876 29.6913 13.8327 29.6913C8.27779 29.6913 3.77466 25.203 3.77466 19.6664C3.77466 14.1299 8.27779 9.6416 13.8327 9.6416C19.3876 9.6416 23.8907 14.1299 23.8907 19.6664ZM13.8327 28.9999C19.0045 28.9999 23.1971 24.8212 23.1971 19.6664C23.1971 14.5117 19.0045 10.333 13.8327 10.333C8.66089 10.333 4.46832 14.5117 4.46832 19.6664C4.46832 24.8212 8.66089 28.9999 13.8327 28.9999Z" fill="#E89B05"/>
<path fill-rule="evenodd" clip-rule="evenodd" d="M5.16203 20.0122C4.97048 20.0122 4.8152 19.8574 4.8152 19.6665C4.8152 14.7027 8.85249 10.6787 13.8327 10.6787C14.0243 10.6787 14.1796 10.8335 14.1796 11.0244C14.1796 11.2153 14.0243 11.3701 13.8327 11.3701C9.23558 11.3701 5.50886 15.0845 5.50885 19.6665C5.50885 19.8574 5.35357 20.0122 5.16203 20.0122Z" fill="#E8AA0A"/>
<path fill-rule="evenodd" clip-rule="evenodd" d="M22.5034 19.3208C22.6949 19.3208 22.8502 19.4756 22.8502 19.6665C22.8502 24.6303 18.8129 28.6543 13.8327 28.6543C13.6411 28.6543 13.4858 28.4995 13.4858 28.3086C13.4858 28.1177 13.6411 27.9629 13.8327 27.9629C18.4298 27.9629 22.1566 24.2485 22.1566 19.6665C22.1566 19.4756 22.3118 19.3208 22.5034 19.3208Z" fill="#E8AA0A"/>
<path d="M20.7693 19.6666C20.7693 23.4849 17.6637 26.5803 13.8327 26.5803C10.0017 26.5803 6.89612 23.4849 6.89612 19.6666C6.89612 15.8483 10.0017 12.7529 13.8327 12.7529C17.6637 12.7529 20.7693 15.8483 20.7693 19.6666Z" fill="#FFDD28"/>
<path fill-rule="evenodd" clip-rule="evenodd" d="M21.463 19.6666C21.463 23.8667 18.0468 27.2716 13.8327 27.2716C9.61868 27.2716 6.20251 23.8667 6.20251 19.6666C6.20251 15.4664 9.61868 12.0615 13.8327 12.0615C18.0468 12.0615 21.463 15.4664 21.463 19.6666ZM13.8327 26.5803C17.6637 26.5803 20.7693 23.4849 20.7693 19.6666C20.7693 15.8483 17.6637 12.7529 13.8327 12.7529C10.0018 12.7529 6.89617 15.8483 6.89617 19.6666C6.89617 23.4849 10.0018 26.5803 13.8327 26.5803Z" fill="#E89B05"/>
<path fill-rule="evenodd" clip-rule="evenodd" d="M13.8327 25.543C17.0891 25.543 19.7288 22.912 19.7288 19.6664C19.7288 19.4755 19.8841 19.3207 20.0757 19.3207C20.2672 19.3207 20.4225 19.4755 20.4225 19.6664C20.4225 23.2938 17.4722 26.2344 13.8327 26.2344C13.6412 26.2344 13.4859 26.0796 13.4859 25.8887C13.4859 25.6978 13.6412 25.543 13.8327 25.543Z" fill="#ECC704"/>
<path fill-rule="evenodd" clip-rule="evenodd" d="M13.8327 13.79C10.5763 13.79 7.93658 16.4211 7.93658 19.6666C7.93658 19.8575 7.7813 20.0123 7.58975 20.0123C7.3982 20.0123 7.24292 19.8575 7.24292 19.6666C7.24292 16.0392 10.1932 13.0986 13.8327 13.0986C14.0242 13.0986 14.1795 13.2534 14.1795 13.4443C14.1795 13.6352 14.0242 13.79 13.8327 13.79Z" fill="#FFEF9C"/>
</svg>
