<svg width="44" height="44" viewBox="0 0 44 44" fill="none" xmlns="http://www.w3.org/2000/svg">
<mask id="mask0_82_5431" style="mask-type:luminance" maskUnits="userSpaceOnUse" x="0" y="0" width="44" height="44">
<path d="M44 0H0V44H44V0Z" fill="white"/>
</mask>
<g mask="url(#mask0_82_5431)">
<path d="M0 21.12C0 11.1639 0 6.18592 3.09295 3.09295C6.18592 0 11.1639 0 21.12 0H22.88C32.8361 0 37.8141 0 40.9071 3.09295C44 6.18592 44 11.1639 44 21.12V22.88C44 32.8361 44 37.8141 40.9071 40.9071C37.8141 44 32.8361 44 22.88 44H21.12C11.1639 44 6.18592 44 3.09295 40.9071C0 37.8141 0 32.8361 0 22.88V21.12Z" fill="#0077FF"/>
<path d="M23.4117 31.6985C13.3834 31.6985 7.66343 24.8235 7.42508 13.3835H12.4484C12.6134 21.7801 16.3167 25.3368 19.25 26.0701V13.3835H23.9802V20.6251C26.8768 20.3134 29.9198 17.0135 30.9465 13.3835H35.6766C34.8882 17.8568 31.5882 21.1568 29.2416 22.5134C31.5882 23.6134 35.3468 26.4918 36.7768 31.6985H31.5699C30.4516 28.2151 27.6652 25.5201 23.9802 25.1534V31.6985H23.4117Z" fill="white"/>
</g>
</svg>
