<svg
  width="21"
  height="20"
  viewBox="0 0 21 20"
  fill="none"
  xmlns="http://www.w3.org/2000/svg"
>
  <path
    d="M14.4893 11.8138C15.3841 12.6082 15.5701 12.8918 15.6005 12.9402C15.9713 13.5282 15.1893 13.5998 15.1893 13.5998H13.5413C13.5413 13.5998 13.1401 13.6042 12.7973 13.377C12.2385 13.011 11.6533 12.3014 11.2417 12.4246C10.8969 12.5278 10.9001 12.9942 10.9001 13.393C10.9001 13.5358 10.7773 13.5998 10.5001 13.5998C10.2229 13.5998 10.1077 13.5998 9.9849 13.5998C9.0821 13.5998 8.1025 13.2958 7.1253 12.2746C5.7429 10.831 4.5305 7.92297 4.5305 7.92297C4.5305 7.92297 4.4589 7.77657 4.5369 7.68737C4.6253 7.58737 4.8657 7.60017 4.8657 7.60017L6.4637 7.59977C6.4637 7.59977 6.6141 7.62817 6.7221 7.70417C6.8113 7.76657 6.8609 7.88577 6.8609 7.88577C6.8609 7.88577 7.1293 8.77217 7.4713 9.33737C8.1393 10.4406 8.4501 10.4682 8.6769 10.3498C9.0081 10.1778 8.9001 9.00497 8.9001 9.00497C8.9001 9.00497 8.9149 8.50137 8.7421 8.27697C8.6089 8.10337 8.3541 8.01097 8.2429 7.99657C8.1529 7.98497 8.3033 7.82737 8.4949 7.73737C8.7509 7.62337 9.0993 7.59417 9.7001 7.59977C10.1677 7.60417 10.3025 7.63217 10.4849 7.67417C11.0365 7.80137 10.9001 8.13697 10.9001 9.31537C10.9001 9.69297 10.8481 10.2238 11.1329 10.3998C11.2557 10.4758 11.6765 10.5686 12.4253 9.35257C12.7809 8.77617 13.0637 7.81897 13.0637 7.81897C13.0637 7.81897 13.1221 7.71377 13.2129 7.66177C13.3057 7.60857 13.3029 7.60977 13.4301 7.60977C13.5573 7.60977 14.8329 7.59977 15.1129 7.59977C15.3925 7.59977 15.6549 7.59657 15.7001 7.76057C15.7649 7.99617 15.4941 8.80337 14.8065 9.67937C13.6777 11.117 13.5521 10.9826 14.4893 11.8138Z"
    stroke="currentColor"
    stroke-miterlimit="10"
  />
  <path
    d="M10.5002 18.8002C15.3603 18.8002 19.3002 14.8603 19.3002 10.0002C19.3002 5.14009 15.3603 1.2002 10.5002 1.2002C5.64009 1.2002 1.7002 5.14009 1.7002 10.0002C1.7002 14.8603 5.64009 18.8002 10.5002 18.8002Z"
    stroke="currentColor"
    stroke-miterlimit="10"
    stroke-linecap="round"
  />
</svg>
