<svg width="398" height="295" viewBox="0 0 398 295" fill="none" xmlns="http://www.w3.org/2000/svg">
<path d="M366.814 1.17792L344.073 45.0095L377.122 76.2681C380.112 73.4155 382.761 70.2594 385.01 66.88C400.179 44.0643 394.18 15.4205 371.723 3.42624C370.144 2.58259 368.502 1.83547 366.814 1.17792Z" fill="#FBFCFA"/>
<path d="M366.814 1.17792L344.073 45.0095L377.122 76.2681C380.112 73.4155 382.761 70.2594 385.01 66.88C400.179 44.0643 394.18 15.4205 371.723 3.42624C370.144 2.58259 368.502 1.83547 366.814 1.17792Z" stroke="#0B1120" stroke-width="1.277" stroke-linecap="round" stroke-linejoin="round"/>
<path d="M344.073 45.0098L347.519 50.3708L380.568 81.6294L377.122 76.2684L344.073 45.0098Z" fill="#0B1120"/>
<path d="M344.073 45.0098L347.519 50.3708L380.568 81.6294L377.122 76.2684L344.073 45.0098Z" stroke="#0B1120" stroke-width="1.277" stroke-linecap="round" stroke-linejoin="round"/>
<path d="M377.122 76.2682L380.568 81.629C383.558 78.7763 386.207 75.6199 388.456 72.2406C399.285 55.9535 399.327 36.6959 390.294 22.6457L386.848 17.285C395.88 31.3352 395.839 50.5927 385.01 66.8798C382.761 70.2592 380.111 73.4156 377.122 76.2682Z" fill="#076646"/>
<path d="M377.122 76.2682L380.568 81.629C383.558 78.7763 386.207 75.6199 388.456 72.2406C399.285 55.9535 399.327 36.6959 390.294 22.6457L386.848 17.285C395.88 31.3352 395.839 50.5927 385.01 66.8798C382.761 70.2592 380.111 73.4156 377.122 76.2682Z" stroke="#0B1120" stroke-width="1.277" stroke-linecap="round" stroke-linejoin="round"/>
<path d="M334.105 1.18648C325.118 1.5459 316.145 4.32184 308.198 9.06483L330.265 48.5642L349.37 3.02997C344.403 1.5669 339.252 0.980609 334.105 1.18648Z" fill="#076646"/>
<path d="M334.105 1.18648C325.118 1.5459 316.145 4.32184 308.198 9.06483L330.265 48.5642L349.37 3.02997C344.403 1.5669 339.252 0.980609 334.105 1.18648Z" stroke="#0B1120" stroke-width="1.277" stroke-linecap="round" stroke-linejoin="round"/>
<path d="M330.264 48.5651L334.135 53.6281L353.24 8.09381L349.37 3.03087L330.264 48.5651Z" fill="#0B1120"/>
<path d="M330.264 48.5651L334.135 53.6281L353.24 8.09381L349.37 3.03087L330.264 48.5651Z" stroke="#0B1120" stroke-width="1.277" stroke-linecap="round" stroke-linejoin="round"/>
<path d="M308.198 9.06513C299.83 14.0622 292.597 21.2423 287.693 30.0994C277.629 48.2894 279.989 68.8285 291.916 82.1097L330.264 48.5645L308.198 9.06513Z" fill="#C6FB50"/>
<path d="M308.198 9.06513C299.83 14.0622 292.597 21.2423 287.693 30.0994C277.629 48.2894 279.989 68.8285 291.916 82.1097L330.264 48.5645L308.198 9.06513Z" stroke="#0B1120" stroke-width="1.277" stroke-linecap="round" stroke-linejoin="round"/>
<path d="M289.899 79.6768L293.77 84.74C294.408 85.5753 295.081 86.387 295.787 87.1733L291.916 82.1101C291.21 81.3238 290.538 80.5121 289.899 79.6768Z" fill="#FBFCFA"/>
<path d="M289.899 79.6768L293.77 84.74C294.408 85.5753 295.081 86.387 295.787 87.1733L291.916 82.1101C291.21 81.3238 290.538 80.5121 289.899 79.6768Z" stroke="#0B1120" stroke-width="1.277" stroke-linecap="round" stroke-linejoin="round"/>
<path d="M330.264 48.5642L291.916 82.1094C295.707 86.3226 300.457 89.8182 306.083 92.264C312.488 95.0392 319.458 96.2209 326.478 95.9402C332.076 95.7164 337.706 94.5627 343.107 92.5457L330.264 48.5642Z" fill="#076646"/>
<path d="M330.264 48.5642L291.916 82.1094C295.707 86.3226 300.457 89.8182 306.083 92.264C312.488 95.0392 319.458 96.2209 326.478 95.9402C332.076 95.7164 337.706 94.5627 343.107 92.5457L330.264 48.5642Z" stroke="#0B1120" stroke-width="1.277" stroke-linecap="round" stroke-linejoin="round"/>
<path d="M330.265 48.5645L343.107 92.5456C351.543 89.3999 359.42 84.1478 365.744 77.0348L330.265 48.5645Z" fill="#C6FB50"/>
<path d="M330.265 48.5645L343.107 92.5456C351.543 89.3999 359.42 84.1478 365.744 77.0348L330.265 48.5645Z" stroke="#0B1120" stroke-width="1.277" stroke-linecap="round" stroke-linejoin="round"/>
<path d="M306.083 92.2644C312.488 95.0395 319.458 96.2209 326.479 95.9402C332.076 95.7164 337.706 94.5628 343.107 92.5457C351.543 89.4 359.42 84.1479 365.744 77.0349L369.614 82.0982C363.29 89.2112 355.413 94.4632 346.977 97.609C341.576 99.626 335.947 100.78 330.349 101.003C323.328 101.284 316.358 100.102 309.953 97.3273C304.327 94.8815 299.577 91.3859 295.787 87.1727L291.916 82.1097C295.707 86.323 300.457 89.8186 306.083 92.2644Z" fill="url(#paint0_linear_4035_6807)"/>
<path d="M306.083 92.2644C312.488 95.0395 319.458 96.2209 326.479 95.9402C332.076 95.7164 337.706 94.5628 343.107 92.5457C351.543 89.4 359.42 84.1479 365.744 77.0349L369.614 82.0982C363.29 89.2112 355.413 94.4632 346.977 97.609C341.576 99.626 335.947 100.78 330.349 101.003C323.328 101.284 316.358 100.102 309.953 97.3273C304.327 94.8815 299.577 91.3859 295.787 87.1727L291.916 82.1097C295.707 86.323 300.457 89.8186 306.083 92.2644Z" stroke="#0B1120" stroke-width="1.277" stroke-linecap="round" stroke-linejoin="round"/>
<path d="M91.8703 88.0158L83.4423 91.8759C83.5655 91.7569 83.6941 91.6685 83.8242 91.6088L92.2522 87.7487C92.1222 87.8084 91.9935 87.8968 91.8703 88.0158Z" fill="#FBFCFA"/>
<path d="M91.8703 88.0158L83.4423 91.8759C83.5655 91.7569 83.6941 91.6685 83.8242 91.6088L92.2522 87.7487C92.1222 87.8084 91.9935 87.8968 91.8703 88.0158Z" stroke="#0B1120" stroke-width="1.277" stroke-linecap="round" stroke-linejoin="round"/>
<path d="M143.209 176.279L95.0429 117.64C94.7242 117.252 94.2347 117.143 93.8486 117.32L85.4205 121.18C85.8066 121.004 86.2962 121.112 86.6148 121.5L134.781 180.139C135.093 180.519 135.583 180.635 135.973 180.456L144.401 176.596C144.011 176.775 143.521 176.659 143.209 176.279Z" fill="url(#paint1_linear_4035_6807)"/>
<path d="M143.209 176.279L95.0429 117.64C94.7242 117.252 94.2347 117.143 93.8486 117.32L85.4205 121.18C85.8066 121.004 86.2962 121.112 86.6148 121.5L134.781 180.139C135.093 180.519 135.583 180.635 135.973 180.456L144.401 176.596C144.011 176.775 143.521 176.659 143.209 176.279Z" stroke="#0B1120" stroke-width="1.277" stroke-linecap="round" stroke-linejoin="round"/>
<path d="M83.4422 91.8766L65.5667 116.967C65.4979 117.03 65.4215 117.079 65.3405 117.116L73.7685 113.257C73.8496 113.219 73.9259 113.17 73.9947 113.107L91.8702 88.0168L83.4422 91.8766Z" fill="#FBFCFA"/>
<path d="M83.4422 91.8766L65.5667 116.967C65.4979 117.03 65.4215 117.079 65.3405 117.116L73.7685 113.257C73.8496 113.219 73.9259 113.17 73.9947 113.107L91.8702 88.0168L83.4422 91.8766Z" stroke="#0B1120" stroke-width="1.277" stroke-linecap="round" stroke-linejoin="round"/>
<path d="M74.1835 142.55L30.4628 89.3226C30.1511 88.9431 29.6609 88.8269 29.2701 89.0058L20.8421 92.8656C21.2328 92.6867 21.723 92.8032 22.0348 93.1827L65.7554 146.41C66.0517 146.771 66.4963 146.89 66.9304 146.691L75.3585 142.831C74.9244 143.03 74.4798 142.911 74.1835 142.55Z" fill="url(#paint2_linear_4035_6807)"/>
<path d="M74.1835 142.55L30.4628 89.3226C30.1511 88.9431 29.6609 88.8269 29.2701 89.0058L20.8421 92.8656C21.2328 92.6867 21.723 92.8032 22.0348 93.1827L65.7554 146.41C66.0517 146.771 66.4963 146.89 66.9304 146.691L75.3585 142.831C74.9244 143.03 74.4798 142.911 74.1835 142.55Z" stroke="#0B1120" stroke-width="1.277" stroke-linecap="round" stroke-linejoin="round"/>
<path d="M9.70186 50.2192L1.27379 54.0794C1.34444 54.0153 1.4242 53.9624 1.51058 53.923L9.93865 50.0628C9.85227 50.1023 9.77251 50.1552 9.70186 50.2192Z" fill="#FBFCFA"/>
<path d="M9.70186 50.2192L1.27379 54.0794C1.34444 54.0153 1.4242 53.9624 1.51058 53.923L9.93865 50.0628C9.85227 50.1023 9.77251 50.1552 9.70186 50.2192Z" stroke="#0B1120" stroke-width="1.277" stroke-linecap="round" stroke-linejoin="round"/>
<path d="M1.27387 54.0798C1.02521 54.3056 0.889999 54.6697 0.975604 55.0752L10.4825 100.034C10.6316 100.739 11.3493 101.114 11.9109 100.857L20.339 96.9968C19.7773 97.2541 19.0597 96.8793 18.9105 96.1737L9.40367 51.2151C9.31776 50.8096 9.45297 50.4455 9.70194 50.2197L1.27387 54.0798Z" fill="#FBFCFA"/>
<path d="M1.27387 54.0798C1.02521 54.3056 0.889999 54.6697 0.975604 55.0752L10.4825 100.034C10.6316 100.739 11.3493 101.114 11.9109 100.857L20.339 96.9968C19.7773 97.2541 19.0597 96.8793 18.9105 96.1737L9.40367 51.2151C9.31776 50.8096 9.45297 50.4455 9.70194 50.2197L1.27387 54.0798Z" stroke="#0B1120" stroke-width="1.277" stroke-linecap="round" stroke-linejoin="round"/>
<path d="M9.70206 50.2192C9.95072 49.9934 10.3134 49.9061 10.6826 50.0545L51.6085 66.4947C52.3467 66.7914 52.5638 67.8048 51.9903 68.3255L43.5309 76.004C43.1232 76.3739 43.0988 77.0497 43.4768 77.5098L72.5747 112.935C72.9612 113.405 73.5996 113.465 73.9946 113.107L91.8704 88.0163C92.4024 87.5016 93.0411 87.5612 93.4276 88.0319L156.216 164.473C156.594 164.933 156.576 165.602 156.162 165.979L144.634 176.442C144.226 176.812 143.587 176.74 143.209 176.279L95.043 117.64C94.6565 117.169 94.0177 117.11 93.6181 117.473L75.7476 142.559C75.2088 143.08 74.57 143.02 74.1835 142.55L30.4629 89.3223C30.0848 88.8621 29.4454 88.7891 29.0377 89.1591L20.5784 96.8375C20.0048 97.3583 19.0825 96.9847 18.911 96.1736L9.40379 51.215C9.31819 50.8094 9.4534 50.4451 9.70206 50.2192Z" fill="#076646"/>
<path d="M9.70206 50.2192C9.95072 49.9934 10.3134 49.9061 10.6826 50.0545L51.6085 66.4947C52.3467 66.7914 52.5638 67.8048 51.9903 68.3255L43.5309 76.004C43.1232 76.3739 43.0988 77.0497 43.4768 77.5098L72.5747 112.935C72.9612 113.405 73.5996 113.465 73.9946 113.107L91.8704 88.0163C92.4024 87.5016 93.0411 87.5612 93.4276 88.0319L156.216 164.473C156.594 164.933 156.576 165.602 156.162 165.979L144.634 176.442C144.226 176.812 143.587 176.74 143.209 176.279L95.043 117.64C94.6565 117.169 94.0177 117.11 93.6182 117.473L75.7476 142.559C75.2088 143.08 74.57 143.02 74.1835 142.55L30.4629 89.3223C30.0848 88.8621 29.4454 88.7891 29.0377 89.1591L20.5784 96.8375C20.0048 97.3583 19.0825 96.9847 18.911 96.1736L9.40379 51.215C9.31819 50.8094 9.4534 50.4451 9.70206 50.2192Z" stroke="#0B1120" stroke-width="1.277" stroke-linecap="round" stroke-linejoin="round"/>
<path d="M98.6865 186L100.794 187.247C99.9897 186.965 99.2325 186.611 98.5261 186.193L96.4182 184.946C97.1246 185.364 97.8818 185.718 98.6865 186Z" fill="#FBFCFA"/>
<path d="M98.6865 186L100.794 187.247C99.9897 186.965 99.2325 186.611 98.5261 186.193L96.4182 184.946C97.1246 185.364 97.8818 185.718 98.6865 186Z" stroke="#0B1120" stroke-width="1.277" stroke-linecap="round" stroke-linejoin="round"/>
<path d="M298.334 256.001L300.441 257.248L100.794 187.248L98.6869 186.001L298.334 256.001Z" fill="#0B1120"/>
<path d="M298.334 256.001L300.441 257.248L100.794 187.248L98.6869 186.001L298.334 256.001Z" stroke="#0B1120" stroke-width="1.277" stroke-linecap="round" stroke-linejoin="round"/>
<path d="M367.756 93.333L365.648 92.0862C371.404 95.4914 373.785 103.111 370.959 110.277L317.407 246.101C314.235 254.148 305.697 258.583 298.334 256.002L300.442 257.248C307.804 259.83 316.343 255.394 319.515 247.348L373.067 111.524C375.892 104.358 373.512 96.7382 367.756 93.333Z" fill="url(#paint3_linear_4035_6807)"/>
<path d="M367.756 93.333L365.648 92.0862C371.404 95.4914 373.785 103.111 370.959 110.277L317.407 246.101C314.235 254.148 305.697 258.583 298.334 256.002L300.442 257.248C307.804 259.83 316.343 255.394 319.515 247.348L373.067 111.524C375.892 104.358 373.512 96.7382 367.756 93.333Z" stroke="#0B1120" stroke-width="1.277" stroke-linecap="round" stroke-linejoin="round"/>
<path d="M363.377 91.0305C370.74 93.6121 374.132 102.23 370.959 110.277L317.407 246.101C314.235 254.147 305.696 258.583 298.334 256.001L98.6869 186.001C91.3282 183.421 87.9366 174.803 91.1091 166.756L144.661 30.9322C147.833 22.8857 156.372 18.4502 163.73 21.0302L363.377 91.0305Z" fill="#C6FB50"/>
<path d="M363.377 91.0305C370.74 93.6121 374.132 102.23 370.959 110.277L317.407 246.101C314.235 254.147 305.696 258.583 298.334 256.001L98.6869 186.001C91.3282 183.421 87.9366 174.803 91.1091 166.756L144.661 30.9322C147.833 22.8857 156.372 18.4502 163.73 21.0302L363.377 91.0305Z" stroke="#0B1120" stroke-width="1.277" stroke-linecap="round" stroke-linejoin="round"/>
<path d="M359.956 96.1294L163.062 27.0947C157.958 25.3051 152.035 28.3795 149.836 33.9565L97.1294 167.637C94.9287 173.218 97.285 179.191 102.389 180.98L299.282 250.015C304.383 251.803 310.304 248.733 312.505 243.152L365.212 109.471C367.411 103.894 365.056 97.9178 359.956 96.1294Z" fill="#FBFCFA"/>
<path d="M359.956 96.1294L163.062 27.0947C157.958 25.3051 152.035 28.3795 149.836 33.9565L97.1294 167.637C94.9287 173.218 97.285 179.191 102.389 180.98L299.282 250.015C304.383 251.803 310.304 248.733 312.505 243.152L365.212 109.471C367.411 103.894 365.056 97.9178 359.956 96.1294Z" stroke="#0B1120" stroke-width="1.277" stroke-linecap="round" stroke-linejoin="round"/>
<path d="M260.338 64.1882C259.138 63.7673 257.749 64.4922 257.231 65.805C256.713 67.1177 257.265 68.518 258.466 68.939C259.666 69.3599 261.058 68.6412 261.575 67.3285C262.093 66.0158 261.539 64.6092 260.338 64.1882Z" fill="#0B1120"/>
<path d="M260.338 64.1882C259.138 63.7673 257.749 64.4922 257.231 65.805C256.713 67.1177 257.265 68.518 258.466 68.939C259.666 69.3599 261.058 68.6412 261.575 67.3285C262.093 66.0158 261.539 64.6092 260.338 64.1882Z" stroke="#0B1120" stroke-width="1.277" stroke-linecap="round" stroke-linejoin="round"/>
<path d="M338.887 176.182L279.654 155.414" stroke="#0B1120" stroke-width="1.277" stroke-linecap="round" stroke-linejoin="round"/>
<path d="M249.282 232.44L309.955 78.5541" stroke="#0B1120" stroke-width="1.277" stroke-linecap="round" stroke-linejoin="round"/>
<path d="M273.304 171.513L117.065 116.733" stroke="#0B1120" stroke-width="1.277" stroke-linecap="round" stroke-linejoin="round"/>
<path d="M163.693 133.081L139.699 193.937" stroke="#0B1120" stroke-width="1.277" stroke-linecap="round" stroke-linejoin="round"/>
<path d="M310.144 115.816L302.748 113.222L296.977 127.86L304.373 130.453L310.144 115.816Z" fill="#076646"/>
<path d="M310.144 115.816L302.748 113.222L296.977 127.86L304.373 130.453L310.144 115.816Z" stroke="#0B1120" stroke-width="1.277" stroke-linecap="round" stroke-linejoin="round"/>
<path d="M326.658 121.606L319.262 119.012L313.491 133.65L320.887 136.243L326.658 121.606Z" fill="#076646"/>
<path d="M326.658 121.606L319.262 119.012L313.491 133.65L320.887 136.243L326.658 121.606Z" stroke="#0B1120" stroke-width="1.277" stroke-linecap="round" stroke-linejoin="round"/>
<path d="M337.077 125.259L329.681 122.666L323.91 137.303L331.306 139.897L337.077 125.259Z" fill="#076646"/>
<path d="M337.077 125.259L329.681 122.666L323.91 137.303L331.306 139.897L337.077 125.259Z" stroke="#0B1120" stroke-width="1.277" stroke-linecap="round" stroke-linejoin="round"/>
<path d="M311.795 129.226L308.722 128.149L307.396 131.514L310.469 132.591L311.795 129.226Z" fill="#076646"/>
<path d="M311.795 129.226L308.722 128.149L307.396 131.514L310.469 132.591L311.795 129.226Z" stroke="#0B1120" stroke-width="1.277" stroke-linecap="round" stroke-linejoin="round"/>
<path d="M280.155 191.877L272.759 189.284L266.988 203.922L274.384 206.515L280.155 191.877Z" fill="#C6FB50"/>
<path d="M280.155 191.877L272.759 189.284L266.988 203.922L274.384 206.515L280.155 191.877Z" stroke="#0B1120" stroke-width="1.277" stroke-linecap="round" stroke-linejoin="round"/>
<path d="M296.669 197.667L289.273 195.074L283.502 209.712L290.898 212.305L296.669 197.667Z" fill="#C6FB50"/>
<path d="M296.669 197.667L289.273 195.074L283.502 209.712L290.898 212.305L296.669 197.667Z" stroke="#0B1120" stroke-width="1.277" stroke-linecap="round" stroke-linejoin="round"/>
<path d="M307.088 201.32L299.692 198.727L293.921 213.365L301.317 215.958L307.088 201.32Z" fill="#C6FB50"/>
<path d="M307.088 201.32L299.692 198.727L293.921 213.365L301.317 215.958L307.088 201.32Z" stroke="#0B1120" stroke-width="1.277" stroke-linecap="round" stroke-linejoin="round"/>
<path d="M281.806 205.288L278.733 204.211L277.407 207.575L280.48 208.652L281.806 205.288Z" fill="#C6FB50"/>
<path d="M281.806 205.288L278.733 204.211L277.407 207.575L280.48 208.652L281.806 205.288Z" stroke="#0B1120" stroke-width="1.277" stroke-linecap="round" stroke-linejoin="round"/>
<path d="M150.545 139.348C150.214 139.232 149.839 139.273 149.514 139.468L145.015 142.08C144.377 142.452 144.096 143.273 144.388 143.914C144.522 144.212 144.758 144.418 145.037 144.516C145.355 144.627 145.729 144.597 146.07 144.399L149.293 142.525L150.431 145.928C150.551 146.287 150.813 146.539 151.131 146.651C151.411 146.749 151.735 146.739 152.045 146.598C152.71 146.293 153.062 145.497 152.84 144.824L151.244 140.074C151.128 139.725 150.873 139.463 150.545 139.348Z" fill="#C6FB50"/>
<path d="M150.545 139.348C150.214 139.232 149.839 139.273 149.514 139.468L145.015 142.08C144.377 142.452 144.096 143.273 144.388 143.914C144.522 144.212 144.758 144.418 145.037 144.516C145.355 144.627 145.729 144.597 146.07 144.399L149.293 142.525L150.431 145.928C150.551 146.287 150.813 146.539 151.131 146.651C151.411 146.749 151.735 146.739 152.045 146.598C152.71 146.293 153.062 145.497 152.84 144.824L151.244 140.074C151.128 139.725 150.873 139.463 150.545 139.348Z" stroke="#0B1120" stroke-width="1.277" stroke-linecap="round" stroke-linejoin="round"/>
<path d="M146.595 158.163C146.277 158.051 145.904 158.082 145.566 158.281L145.561 158.279L142.344 160.15L141.2 156.75C141.079 156.39 140.817 156.137 140.499 156.025C140.221 155.928 139.899 155.938 139.59 156.082C138.925 156.387 138.571 157.176 138.797 157.851L140.391 162.606C140.505 162.948 140.76 163.21 141.091 163.327C141.419 163.442 141.793 163.4 142.121 163.212L146.622 160.595C147.256 160.222 147.539 159.407 147.247 158.766C147.111 158.467 146.874 158.26 146.595 158.163Z" fill="#076646"/>
<path d="M146.595 158.163C146.277 158.051 145.904 158.082 145.566 158.281L145.561 158.279L142.344 160.15L141.2 156.75C141.079 156.39 140.817 156.137 140.499 156.025C140.221 155.928 139.899 155.938 139.59 156.082C138.925 156.387 138.571 157.176 138.797 157.851L140.391 162.606C140.505 162.948 140.76 163.21 141.091 163.327C141.419 163.442 141.793 163.4 142.121 163.212L146.622 160.595C147.256 160.222 147.539 159.407 147.247 158.766C147.111 158.467 146.874 158.26 146.595 158.163Z" stroke="#0B1120" stroke-width="1.277" stroke-linecap="round" stroke-linejoin="round"/>
<path d="M136.552 174.839C136.221 174.722 135.846 174.763 135.521 174.958L131.022 177.57C130.383 177.942 130.103 178.764 130.395 179.404C130.531 179.701 130.767 179.907 131.046 180.005C131.364 180.117 131.737 180.087 132.077 179.889L135.3 178.015L136.438 181.418C136.558 181.778 136.82 182.029 137.138 182.141C137.418 182.239 137.742 182.229 138.052 182.088C138.717 181.784 139.069 180.988 138.847 180.314L137.252 175.56C137.135 175.215 136.88 174.954 136.552 174.839Z" fill="#C6FB50"/>
<path d="M136.552 174.839C136.221 174.722 135.846 174.763 135.521 174.958L131.022 177.57C130.383 177.942 130.103 178.764 130.395 179.404C130.531 179.701 130.767 179.907 131.046 180.005C131.364 180.117 131.737 180.087 132.077 179.889L135.3 178.015L136.438 181.418C136.558 181.778 136.82 182.029 137.138 182.141C137.418 182.239 137.742 182.229 138.052 182.088C138.717 181.784 139.069 180.988 138.847 180.314L137.252 175.56C137.135 175.215 136.88 174.954 136.552 174.839Z" stroke="#0B1120" stroke-width="1.277" stroke-linecap="round" stroke-linejoin="round"/>
<path d="M139.993 136.751L120.02 129.748L118.326 134.044L138.299 141.047L139.993 136.751Z" fill="#C6FB50"/>
<path d="M139.993 136.751L120.02 129.748L118.326 134.044L138.299 141.047L139.993 136.751Z" stroke="#0B1120" stroke-width="1.277" stroke-linecap="round" stroke-linejoin="round"/>
<path d="M132.996 154.496L113.023 147.493L111.329 151.79L131.302 158.793L132.996 154.496Z" fill="#076646"/>
<path d="M132.996 154.496L113.023 147.493L111.329 151.79L131.302 158.793L132.996 154.496Z" stroke="#0B1120" stroke-width="1.277" stroke-linecap="round" stroke-linejoin="round"/>
<path d="M126 172.241L106.027 165.238L104.333 169.535L124.306 176.538L126 172.241Z" fill="#C6FB50"/>
<path d="M126 172.241L106.027 165.238L104.333 169.535L124.306 176.538L126 172.241Z" stroke="#0B1120" stroke-width="1.277" stroke-linecap="round" stroke-linejoin="round"/>
<path d="M305.643 225.187L287.509 218.829C283.173 217.308 278.145 219.918 276.277 224.655C274.408 229.396 276.406 234.47 280.743 235.991L298.877 242.349C303.209 243.868 308.237 241.258 310.107 236.516C311.974 231.779 309.975 226.706 305.643 225.187Z" fill="#076646"/>
<path d="M305.643 225.187L287.509 218.829C283.173 217.308 278.145 219.918 276.277 224.655C274.408 229.396 276.406 234.47 280.743 235.991L298.877 242.349C303.209 243.868 308.237 241.258 310.107 236.516C311.974 231.779 309.975 226.706 305.643 225.187Z" stroke="#0B1120" stroke-width="1.277" stroke-linecap="round" stroke-linejoin="round"/>
<path d="M296.854 231.29C296.646 230.913 296.184 230.828 295.821 231.074L293.071 232.911L295.578 226.553C295.744 226.131 295.567 225.682 295.181 225.547C294.794 225.411 294.346 225.641 294.18 226.063L291.675 232.415L290.867 229.337C290.803 229.095 290.638 228.923 290.431 228.851C289.838 228.637 289.221 229.313 289.395 229.897L290.769 235.149C290.885 235.632 291.471 235.82 291.865 235.533L296.544 232.404C296.913 232.157 297.053 231.657 296.854 231.29Z" fill="#0B1120"/>
<path d="M296.854 231.29C296.646 230.913 296.184 230.828 295.821 231.074L293.071 232.911L295.578 226.553C295.744 226.131 295.567 225.682 295.181 225.547C294.794 225.411 294.346 225.641 294.18 226.063L291.675 232.415L290.867 229.337C290.803 229.095 290.638 228.923 290.431 228.851C289.838 228.637 289.221 229.313 289.395 229.897L290.769 235.149C290.885 235.632 291.471 235.82 291.865 235.533L296.544 232.404C296.913 232.157 297.053 231.657 296.854 231.29Z" stroke="#0B1120" stroke-width="1.277" stroke-linecap="round" stroke-linejoin="round"/>
<path d="M335.632 149.125L317.498 142.767C313.162 141.247 308.133 143.857 306.266 148.594C304.396 153.335 306.395 158.409 310.731 159.929L328.865 166.288C333.198 167.806 338.226 165.196 340.095 160.455C341.963 155.718 339.964 150.644 335.632 149.125Z" fill="#C6FB50"/>
<path d="M335.632 149.125L317.498 142.767C313.162 141.247 308.133 143.857 306.266 148.594C304.396 153.335 306.395 158.409 310.731 159.929L328.865 166.288C333.198 167.806 338.226 165.196 340.095 160.455C341.963 155.718 339.964 150.644 335.632 149.125Z" stroke="#0B1120" stroke-width="1.277" stroke-linecap="round" stroke-linejoin="round"/>
<path d="M326.981 155.215L325.616 150.023C325.567 149.701 325.283 149.44 324.954 149.442C324.815 149.207 320.035 152.635 319.829 152.707C319.299 153.038 319.282 153.927 319.89 154.138C320.096 154.211 320.339 154.183 320.554 154.042L323.299 152.207L320.795 158.557C320.629 158.979 320.807 159.434 321.194 159.569C321.58 159.705 322.027 159.47 322.193 159.047L324.699 152.691L325.507 155.779C325.57 156.017 325.735 156.188 325.941 156.26C326.534 156.474 327.154 155.797 326.981 155.215Z" fill="#0B1120"/>
<path d="M326.981 155.215L325.616 150.023C325.567 149.701 325.283 149.44 324.954 149.442C324.815 149.207 320.035 152.635 319.829 152.707C319.299 153.038 319.282 153.927 319.89 154.138C320.096 154.211 320.339 154.183 320.554 154.042L323.299 152.207L320.795 158.557C320.629 158.979 320.807 159.434 321.194 159.569C321.58 159.705 322.027 159.47 322.193 159.047L324.699 152.691L325.507 155.779C325.57 156.017 325.735 156.188 325.941 156.26C326.534 156.474 327.154 155.797 326.981 155.215Z" stroke="#0B1120" stroke-width="1.277" stroke-linecap="round" stroke-linejoin="round"/>
<path d="M149.97 67.1601L143.837 65.0107L139.131 76.9503L145.265 79.0998L149.97 67.1601Z" fill="#076646"/>
<path d="M149.97 67.1601L143.837 65.0107L139.131 76.9503L145.265 79.0998L149.97 67.1601Z" stroke="#0B1120" stroke-width="1.277" stroke-linecap="round" stroke-linejoin="round"/>
<path d="M158.1 73.2716L151.962 71.1208L146.167 85.8241L152.305 87.9749L158.1 73.2716Z" fill="#C6FB50"/>
<path d="M158.1 73.2716L151.962 71.1208L146.167 85.8241L152.305 87.9749L158.1 73.2716Z" stroke="#0B1120" stroke-width="1.277" stroke-linecap="round" stroke-linejoin="round"/>
<path d="M172.395 63.7664L166.258 61.6157L160.199 76.9892L166.336 79.14L172.395 63.7664Z" fill="#C6FB50"/>
<path d="M172.395 63.7664L166.258 61.6157L160.199 76.9892L166.336 79.14L172.395 63.7664Z" stroke="#0B1120" stroke-width="1.277" stroke-linecap="round" stroke-linejoin="round"/>
<path d="M185.266 57.8918L179.133 55.7423L174.636 67.1543L180.769 69.3037L185.266 57.8918Z" fill="#C6FB50"/>
<path d="M185.266 57.8918L179.133 55.7423L174.636 67.1543L180.769 69.3037L185.266 57.8918Z" stroke="#0B1120" stroke-width="1.277" stroke-linecap="round" stroke-linejoin="round"/>
<path d="M196.698 55.6282L190.561 53.4772L182.829 73.0966L188.966 75.2476L196.698 55.6282Z" fill="#076646"/>
<path d="M196.698 55.6282L190.561 53.4772L182.829 73.0966L188.966 75.2476L196.698 55.6282Z" stroke="#0B1120" stroke-width="1.277" stroke-linecap="round" stroke-linejoin="round"/>
<path d="M205.427 60.2383L199.289 58.0875L194.338 70.6518L200.475 72.8026L205.427 60.2383Z" fill="#C6FB50"/>
<path d="M205.427 60.2383L199.289 58.0875L194.338 70.6518L200.475 72.8026L205.427 60.2383Z" stroke="#0B1120" stroke-width="1.277" stroke-linecap="round" stroke-linejoin="round"/>
<path d="M211.365 71.8837L205.232 69.7342L199.537 84.1849L205.67 86.3344L211.365 71.8837Z" fill="#076646"/>
<path d="M211.365 71.8837L205.232 69.7342L199.537 84.1849L205.67 86.3344L211.365 71.8837Z" stroke="#0B1120" stroke-width="1.277" stroke-linecap="round" stroke-linejoin="round"/>
<path d="M215.765 87.5136L209.627 85.3626L201.548 105.864L207.686 108.015L215.765 87.5136Z" fill="#076646"/>
<path d="M215.765 87.5136L209.627 85.3626L201.548 105.864L207.686 108.015L215.765 87.5136Z" stroke="#0B1120" stroke-width="1.277" stroke-linecap="round" stroke-linejoin="round"/>
<path d="M218.19 108.165L212.052 106.014L206.923 119.028L213.061 121.179L218.19 108.165Z" fill="#076646"/>
<path d="M218.19 108.165L212.052 106.014L206.923 119.028L213.061 121.179L218.19 108.165Z" stroke="#0B1120" stroke-width="1.277" stroke-linecap="round" stroke-linejoin="round"/>
<path d="M229.727 105.629L223.594 103.479L220.417 111.54L226.55 113.689L229.727 105.629Z" fill="#C6FB50"/>
<path d="M229.727 105.629L223.594 103.479L220.417 111.54L226.55 113.689L229.727 105.629Z" stroke="#0B1120" stroke-width="1.277" stroke-linecap="round" stroke-linejoin="round"/>
<path d="M245.907 91.2939L239.77 89.1428L231.691 109.644L237.828 111.795L245.907 91.2939Z" fill="#C6FB50"/>
<path d="M245.907 91.2939L239.77 89.1428L231.691 109.644L237.828 111.795L245.907 91.2939Z" stroke="#0B1120" stroke-width="1.277" stroke-linecap="round" stroke-linejoin="round"/>
<path d="M251.904 102.864L245.771 100.715L239.453 116.745L245.587 118.895L251.904 102.864Z" fill="#076646"/>
<path d="M251.904 102.864L245.771 100.715L239.453 116.745L245.587 118.895L251.904 102.864Z" stroke="#0B1120" stroke-width="1.277" stroke-linecap="round" stroke-linejoin="round"/>
<path d="M257.093 116.471L250.955 114.32L242.876 134.821L249.013 136.972L257.093 116.471Z" fill="#076646"/>
<path d="M257.093 116.471L250.955 114.32L242.876 134.821L249.013 136.972L257.093 116.471Z" stroke="#0B1120" stroke-width="1.277" stroke-linecap="round" stroke-linejoin="round"/>
<path d="M263.152 127.776L257.015 125.626L251.113 140.6L257.251 142.75L263.152 127.776Z" fill="#076646"/>
<path d="M263.152 127.776L257.015 125.626L251.113 140.6L257.251 142.75L263.152 127.776Z" stroke="#0B1120" stroke-width="1.277" stroke-linecap="round" stroke-linejoin="round"/>
<path d="M267.619 143.254L261.486 141.104L255.939 155.179L262.072 157.328L267.619 143.254Z" fill="#C6FB50"/>
<path d="M267.619 143.254L261.486 141.104L255.939 155.179L262.072 157.328L267.619 143.254Z" stroke="#0B1120" stroke-width="1.277" stroke-linecap="round" stroke-linejoin="round"/>
<path d="M281.935 133.698L275.797 131.547L267.718 152.048L273.856 154.199L281.935 133.698Z" fill="#C6FB50"/>
<path d="M281.935 133.698L275.797 131.547L267.718 152.048L273.856 154.199L281.935 133.698Z" stroke="#0B1120" stroke-width="1.277" stroke-linecap="round" stroke-linejoin="round"/>
<path d="M361.405 236.025L362.849 239.82L348.305 243.828L346.861 240.033L361.405 236.025Z" fill="#C6FB50"/>
<path d="M361.405 236.025L362.849 239.82L348.305 243.828L346.861 240.033L361.405 236.025Z" stroke="#0B1120" stroke-width="1.277" stroke-linecap="round" stroke-linejoin="round"/>
<path d="M363.261 232.752L364.706 236.547C365.036 237.472 364.744 238.582 363.908 239.275C363.619 239.515 363.265 239.704 362.849 239.819L361.405 236.024C361.82 235.909 362.174 235.72 362.463 235.48C363.299 234.787 363.591 233.677 363.261 232.752Z" fill="#C6FB50"/>
<path d="M363.261 232.752L364.706 236.547C365.036 237.472 364.744 238.582 363.908 239.275C363.619 239.515 363.265 239.704 362.849 239.819L361.405 236.024C361.82 235.909 362.174 235.72 362.463 235.48C363.299 234.787 363.591 233.677 363.261 232.752Z" stroke="#0B1120" stroke-width="1.277" stroke-linecap="round" stroke-linejoin="round"/>
<path d="M339.834 245.855L341.278 249.65L335.118 262.8L333.674 259.005L339.834 245.855Z" fill="#C6FB50"/>
<path d="M339.834 245.855L341.278 249.65L335.118 262.8L333.674 259.005L339.834 245.855Z" stroke="#0B1120" stroke-width="1.277" stroke-linecap="round" stroke-linejoin="round"/>
<path d="M333.674 259.005L335.118 262.8C334.942 263.176 334.696 263.483 334.407 263.722C333.088 264.816 330.87 264.488 330.261 262.781L328.816 258.986C329.426 260.693 331.643 261.021 332.963 259.927C333.252 259.688 333.497 259.38 333.674 259.005Z" fill="#C6FB50"/>
<path d="M333.674 259.005L335.118 262.8C334.942 263.176 334.696 263.483 334.407 263.722C333.088 264.816 330.87 264.488 330.261 262.781L328.816 258.986C329.426 260.693 331.643 261.021 332.963 259.927C333.252 259.688 333.497 259.38 333.674 259.005Z" stroke="#0B1120" stroke-width="1.277" stroke-linecap="round" stroke-linejoin="round"/>
<path d="M355.291 262.707L356.736 266.502L341.278 249.65L339.834 245.855L355.291 262.707Z" fill="#C6FB50"/>
<path d="M355.291 262.707L356.736 266.502L341.278 249.65L339.834 245.855L355.291 262.707Z" stroke="#0B1120" stroke-width="1.277" stroke-linecap="round" stroke-linejoin="round"/>
<path d="M363.143 258.246L364.587 262.041C365.162 263.65 364.659 265.543 363.171 266.776C361.23 268.384 358.349 268.262 356.736 266.502L355.291 262.707C356.905 264.467 359.786 264.589 361.726 262.981C363.214 261.748 363.717 259.855 363.143 258.246Z" fill="#C6FB50"/>
<path d="M363.143 258.246L364.587 262.041C365.162 263.65 364.659 265.543 363.171 266.776C361.23 268.384 358.349 268.262 356.736 266.502L355.291 262.707C356.905 264.467 359.786 264.589 361.726 262.981C363.214 261.748 363.717 259.855 363.143 258.246Z" stroke="#0B1120" stroke-width="1.277" stroke-linecap="round" stroke-linejoin="round"/>
<path d="M315.263 212.326C316.016 211.702 317.109 211.45 318.135 211.906L361.983 231.417C363.746 232.198 363.8 234.371 362.463 235.479C362.175 235.719 361.82 235.908 361.405 236.023L346.86 240.032L362.318 256.884C363.931 258.643 363.667 261.372 361.726 262.98C359.786 264.588 356.905 264.466 355.291 262.707L339.834 245.855L333.674 259.004C333.497 259.38 333.252 259.687 332.963 259.927C331.627 261.034 329.371 260.684 328.794 258.921L314.434 214.973C314.098 213.945 314.511 212.95 315.263 212.326Z" fill="#FBFCFA"/>
<path d="M315.263 212.326C316.016 211.702 317.109 211.45 318.135 211.906L361.983 231.417C363.746 232.198 363.8 234.371 362.463 235.479C362.175 235.719 361.82 235.908 361.405 236.023L346.86 240.032L362.318 256.884C363.931 258.643 363.667 261.372 361.726 262.98C359.786 264.588 356.905 264.466 355.291 262.707L339.834 245.855L333.674 259.004C333.497 259.38 333.252 259.687 332.963 259.927C331.627 261.034 329.371 260.684 328.794 258.921L314.434 214.973C314.098 213.945 314.511 212.95 315.263 212.326Z" stroke="#0B1120" stroke-width="1.277" stroke-linecap="round" stroke-linejoin="round"/>
<path d="M147.665 189.563C149.724 192.454 152.717 191.414 153.682 190.295L154.273 189.558C159.373 182.818 171.201 172.385 178.132 177.677C181.913 180.564 181.49 191.191 186.76 189.286C196.987 185.589 196.014 190.117 202.809 190.59C209.57 191.061 221.082 175.662 227.974 178.619C230.934 179.889 229.019 192.769 232.227 193.634C235.303 194.463 243.79 185.306 245.835 189.236C248.548 194.448 252.677 195.052 256.77 194.27" stroke="#0B1120" stroke-width="1.277" stroke-linecap="round" stroke-linejoin="round"/>
<path d="M247.015 215.299C246.323 214.081 245.561 213.322 244.187 213.742C212.661 223.381 230.688 189.263 218.194 186.854C206.555 184.61 213.006 176.361 198.41 177.84C190.539 178.638 199.842 156.114 171.9 163.013C169.029 163.714 166.441 164.898 164.099 165.758" stroke="#0B1120" stroke-width="1.277" stroke-linecap="round" stroke-linejoin="round"/>
<path d="M304.963 263.552L231.907 288.46C227.576 289.937 218.103 289.042 210.744 286.462L11.0972 216.462C5.93432 214.651 3.18361 212.494 3.49407 210.857L2.51452 216.023C2.20404 217.66 4.95444 219.818 10.1173 221.628L209.765 291.628C217.123 294.208 226.596 295.103 230.927 293.627L303.983 268.718C305.277 268.277 305.965 267.674 306.097 266.977L307.077 261.81C306.945 262.508 306.256 263.111 304.963 263.552Z" fill="url(#paint4_linear_4035_6807)"/>
<path d="M304.963 263.552L231.907 288.46C227.576 289.937 218.103 289.042 210.744 286.462L11.0972 216.462C5.93432 214.651 3.18361 212.494 3.49407 210.857L2.51452 216.023C2.20404 217.66 4.95444 219.818 10.1173 221.628L209.765 291.628C217.123 294.208 226.596 295.103 230.927 293.627L303.983 268.718C305.277 268.277 305.965 267.674 306.097 266.977L307.077 261.81C306.945 262.508 306.256 263.111 304.963 263.552Z" stroke="#0B1120" stroke-width="1.277" stroke-linecap="round" stroke-linejoin="round"/>
<path d="M299.478 256.208C306.836 258.788 309.293 262.076 304.962 263.552L231.906 288.461C227.576 289.937 218.103 289.042 210.744 286.462L11.0967 216.462C3.73401 213.88 1.27743 210.592 5.60806 209.116L78.6641 184.208C82.9947 182.731 92.4678 183.626 99.8306 186.208L299.478 256.208Z" fill="#C6FB50"/>
<path d="M299.478 256.208C306.836 258.788 309.293 262.076 304.962 263.552L231.906 288.461C227.576 289.937 218.103 289.042 210.744 286.462L11.0967 216.462C3.73401 213.88 1.27743 210.592 5.60806 209.116L78.6641 184.208C82.9947 182.731 92.4678 183.626 99.8306 186.208L299.478 256.208Z" stroke="#0B1120" stroke-width="1.277" stroke-linecap="round" stroke-linejoin="round"/>
<path d="M277.733 253.637L106.958 193.76C104.691 192.965 101.771 192.689 100.438 193.144L62.0881 206.22C60.7549 206.674 61.5147 207.686 63.7815 208.481L234.556 268.358C236.823 269.153 239.737 269.429 241.07 268.974L279.42 255.898C280.753 255.444 280 254.432 277.733 253.637Z" fill="#FBFCFA"/>
<path d="M277.733 253.637L106.958 193.76C104.691 192.965 101.771 192.689 100.438 193.144L62.0881 206.22C60.7549 206.674 61.5147 207.686 63.7815 208.481L234.556 268.358C236.823 269.153 239.737 269.429 241.07 268.974L279.42 255.898C280.753 255.444 280 254.432 277.733 253.637Z" stroke="#0B1120" stroke-width="1.277" stroke-linecap="round" stroke-linejoin="round"/>
<path d="M176.398 250.161L115.59 228.841C112.971 227.922 109.598 227.604 108.054 228.13L85.8685 235.694C84.3278 236.219 85.2028 237.39 87.8219 238.308L148.63 259.629C151.249 260.547 154.623 260.866 156.163 260.341L178.349 252.777C179.893 252.251 179.018 251.08 176.398 250.161Z" fill="#FBFCFA"/>
<path d="M176.398 250.161L115.59 228.841C112.971 227.922 109.598 227.604 108.054 228.13L85.8685 235.694C84.3278 236.219 85.2028 237.39 87.8219 238.308L148.63 259.629C151.249 260.547 154.623 260.866 156.163 260.341L178.349 252.777C179.893 252.251 179.018 251.08 176.398 250.161Z" stroke="#0B1120" stroke-width="1.277" stroke-linecap="round" stroke-linejoin="round"/>
<defs>
<linearGradient id="paint0_linear_4035_6807" x1="-3962.17" y1="-919.917" x2="-4036.08" y2="-899.406" gradientUnits="userSpaceOnUse">
<stop offset="0.17" stop-color="#36C193"/>
<stop offset="0.59" stop-color="#236952"/>
<stop offset="1" stop-color="#111111"/>
</linearGradient>
<linearGradient id="paint1_linear_4035_6807" x1="70.1892" y1="137.679" x2="104.616" y2="179.143" gradientUnits="userSpaceOnUse">
<stop stop-color="#111111"/>
<stop offset="0.34" stop-color="#236952"/>
<stop offset="0.69" stop-color="#36C193"/>
</linearGradient>
<linearGradient id="paint2_linear_4035_6807" x1="-0.648302" y1="116.492" x2="35.1605" y2="164.694" gradientUnits="userSpaceOnUse">
<stop stop-color="#111111"/>
<stop offset="0.5" stop-color="#236952"/>
<stop offset="1" stop-color="#36C193"/>
</linearGradient>
<linearGradient id="paint3_linear_4035_6807" x1="387.075" y1="136.404" x2="345.382" y2="262.557" gradientUnits="userSpaceOnUse">
<stop offset="0.01" stop-color="#B0FFE5"/>
<stop offset="0.25" stop-color="#73E0BC"/>
<stop offset="0.5" stop-color="#36C193"/>
<stop offset="0.75" stop-color="#1B6049"/>
<stop offset="1"/>
</linearGradient>
<linearGradient id="paint4_linear_4035_6807" x1="-60.258" y1="451.466" x2="230.025" y2="554.171" gradientUnits="userSpaceOnUse">
<stop stop-color="#B0FFE5"/>
<stop offset="0.35" stop-color="#73E0BC"/>
<stop offset="0.71" stop-color="#36C193"/>
<stop offset="0.85" stop-color="#236952"/>
<stop offset="1" stop-color="#111111"/>
</linearGradient>
</defs>
</svg>
